# xmcd CD database file
#
# Track frame offsets:
#	150
#	14187
#	29510
#	47333
#	61791
#	76964
#	91410
#	106146
#	121104
#	140304
#	152289
#	167461
#	186879
#
# Disc length: 2758 seconds
#
# Revision: 0
# Processed by: cddbd v1.5.2PL0 Copyright (c) Steve Scherf et al.
# Submitted via: CDex 1.51
#
DISCID=940ac40d
DTITLE=Die Gluzger aus Rottenburg - N. - Bierjazz live 1992
DYEAR=1992
DGENRE=Jazz
TTITLE0=01 - Harlem Bound
TTITLE1=02 - When you're smilin'
TTITLE2=03 - De Knoblauch
TTITLE3=04 - Dr. Jazz
TTITLE4=05 - Ja-Da
TTITLE5=06 - Sheik of Araby
TTITLE6=07 - Tiperary
TTITLE7=08 - Hello Dolly
TTITLE8=09 - Evelin
TTITLE9=10 - Give me you telephone number
TTITLE10=11 - De Karle
TTITLE11=12 - White cliffs of Dover
TTITLE12=13 - Ice Cream
EXTD=YEAR: 1992
EXTT0=
EXTT1=
EXTT2=
EXTT3=
EXTT4=
EXTT5=
EXTT6=
EXTT7=
EXTT8=
EXTT9=
EXTT10=
EXTT11=
EXTT12=
PLAYORDER=
